<svg
 xmlns="http://www.w3.org/2000/svg"
 xmlns:xlink="http://www.w3.org/1999/xlink"
 width="36px" height="31px">
<path fill-rule="evenodd" fill="rgb(0, 168, 255)"
 d="M33.241,0.541 L1.676,12.491 C-0.050,12.990 0.005,14.695 1.282,15.104 L9.190,17.573 L12.217,26.849 C12.584,27.866 12.885,28.248 13.513,28.255 C14.173,28.265 14.426,28.024 15.112,27.418 C15.915,26.664 17.138,25.477 19.070,23.599 L27.297,29.677 C28.810,30.511 29.903,30.079 30.281,28.271 L35.438,2.761 C35.991,0.545 34.689,-0.116 33.241,0.541 ZM10.432,17.006 L28.412,5.725 C29.298,5.131 29.576,5.794 29.176,6.254 L14.253,19.675 L13.488,26.374 L10.432,17.006 Z"/>
</svg>